<svg width="16" height="16" viewBox="0 0 16 16" fill="none" xmlns="http://www.w3.org/2000/svg">
<path d="M13.1667 16H2.83328C1.26656 16 0 14.701 0 13.0941V2.90593C0 1.29904 1.26656 0 2.83328 0H13.1667C14.7334 0 16 1.29904 16 2.90593V13.0941C16 14.701 14.7334 16 13.1667 16Z" fill="#FF26BE"/>
<path d="M12.9133 15.316H3.08673C1.75361 15.316 0.666885 14.2014 0.666885 12.8341V3.16585C0.666885 1.79854 1.75361 0.68396 3.08673 0.68396H12.9069C14.247 0.68396 15.3267 1.79854 15.3267 3.16585V12.8276C15.3331 14.2014 14.2464 15.316 12.9133 15.316Z" fill="#2E001F"/>
<path d="M6.3264 7.48699L8.19328 11.1655C8.22656 11.22 8.20672 11.2751 8.15296 11.2751H6.99264C6.91904 11.2751 6.88576 11.2548 6.85248 11.1865C6.4256 10.284 5.99232 9.38139 5.5456 8.41056H5.53216C5.13216 9.32691 4.69184 10.2912 4.2656 11.1937C4.23232 11.2482 4.19904 11.2692 4.14528 11.2692H3.0464C2.97984 11.2692 2.9728 11.2147 3.00672 11.1734L4.83328 7.60383L3.06688 3.99357C3.02656 3.93909 3.06688 3.89774 3.10656 3.89774H4.25344C4.32 3.89774 4.34688 3.91152 4.37312 3.97323C4.79296 4.87579 5.21984 5.80592 5.61984 6.71505H5.63328C6.01984 5.81249 6.44672 4.87579 6.86016 3.97979C6.89344 3.92531 6.91328 3.89117 6.98048 3.89117H8.05376C8.10688 3.89117 8.12736 3.93253 8.09408 3.98701L6.3264 7.48699ZM8.52032 8.60157C8.52032 7.00847 9.55392 5.76391 11.1936 5.76391C11.3338 5.76391 11.4067 5.76391 11.5405 5.7777V3.96601C11.5405 3.92465 11.5738 3.89774 11.607 3.89774H12.6605C12.7136 3.89774 12.727 3.91809 12.727 3.95222V10.2295C12.727 10.4139 12.727 10.6463 12.7603 10.8997C12.7603 10.941 12.7469 10.9541 12.7072 10.9752C12.1472 11.2489 11.5603 11.3716 11.0003 11.3716C9.55328 11.3775 8.51968 10.4618 8.52032 8.60157ZM11.5398 6.85158C11.4464 6.81023 11.3133 6.78332 11.1533 6.78332C10.313 6.78332 9.72672 7.44629 9.72672 8.54775C9.72672 9.80609 10.327 10.3122 11.0803 10.3122C11.2403 10.3122 11.4138 10.2918 11.5405 10.2367V6.85158H11.5398Z" fill="#FFD9F2"/>
</svg>
