<svg width="16" height="16" viewBox="0 0 16 16" fill="none" xmlns="http://www.w3.org/2000/svg">
<path d="M7.97448 0L0 2.64909L1.26019 12.512L7.98286 16L14.7402 12.4647L16 2.60218L7.97448 0Z" fill="#BDBDBD"/>
<path d="M15.1688 3.10073L8 0.776367V15.1618L14.0312 12.0062L15.1688 3.10073Z" fill="#B71C1C"/>
<path d="M7.97754 0.769104L0.830872 3.14329L1.96878 12.052L7.98135 15.1713L8.00001 15.1618V0.776377L7.97754 0.769104Z" fill="#DD2C00"/>
<path d="M8 1.45306V4.91052L11.2678 11.6363H12.9474L8 1.45306Z" fill="#BDBDBD"/>
<path d="M3.05258 11.6363H4.7322L8.00001 4.91052V1.45306L3.05258 11.6363Z" fill="#EEEEEE"/>
<path d="M8 8H10.2857V9.45455H8V8Z" fill="#BDBDBD"/>
<path d="M5.71429 8H8.00001V9.45455H5.71429V8Z" fill="#EEEEEE"/>
</svg>
