<svg width="16" height="16" viewBox="0 0 16 16" fill="none" xmlns="http://www.w3.org/2000/svg">
<path d="M8.53572 5.16667H5.58334C4.1566 5.16667 3 4.01008 3 2.58334C3 1.1566 4.1566 0 5.58334 0H8.53572V5.16667Z" fill="#ED3719"/>
<path d="M8.16667 10.3334H5.58334C4.1566 10.3334 3 9.17676 3 7.75002C3 6.32328 4.1566 5.16669 5.58334 5.16669H8.16667V10.3334Z" fill="#7C4DFF"/>
<path d="M5.58334 15.5C4.1566 15.5 3 14.3434 3 12.9166C3 11.4899 4.1566 10.3333 5.58334 10.3333H8.16667V12.9166C8.16667 14.3434 7.01008 15.5 5.58334 15.5Z" fill="#66BB6A"/>
<path d="M10.75 5.16667H8.16666V0H10.75C12.1767 0 13.3333 1.1566 13.3333 2.58334C13.3333 4.01008 12.1767 5.16667 10.75 5.16667Z" fill="#FF7043"/>
<path d="M10.75 10.3334C12.1767 10.3334 13.3333 9.17676 13.3333 7.75002C13.3333 6.32329 12.1767 5.16669 10.75 5.16669C9.32326 5.16669 8.16666 6.32329 8.16666 7.75002C8.16666 9.17676 9.32326 10.3334 10.75 10.3334Z" fill="#29B6F6"/>
</svg>
