<svg width="16" height="16" viewBox="0 0 16 16" fill="none" xmlns="http://www.w3.org/2000/svg">
<path d="M15.6632 7.2L8.8 0.336842C8.58947 0.126316 8.29474 0 8 0C7.70526 0 7.41053 0.126316 7.2 0.336842L5.72632 1.81053L7.45263 3.53684C7.62105 3.45263 7.78947 3.41053 8 3.41053C8.71579 3.41053 9.26316 3.95789 9.26316 4.67368C9.26316 4.88421 9.22105 5.05263 9.13684 5.22105L10.8211 6.90526C10.9895 6.82105 11.1579 6.77895 11.3684 6.77895C12.0842 6.77895 12.6316 7.32632 12.6316 8.04211C12.6316 8.75789 12.0842 9.30526 11.3684 9.30526C10.6526 9.30526 10.1053 8.75789 10.1053 8.04211C10.1053 7.83158 10.1474 7.66316 10.2316 7.49474L8.54737 5.81053C8.50526 5.81053 8.46316 5.85263 8.42105 5.85263V10.2316C8.92632 10.4 9.26316 10.8632 9.26316 11.4105C9.26316 12.1263 8.71579 12.6737 8 12.6737C7.28421 12.6737 6.73684 12.1263 6.73684 11.4105C6.73684 10.8632 7.07368 10.4 7.57895 10.2316V5.81053C7.07368 5.64211 6.73684 5.17895 6.73684 4.63158C6.73684 4.42105 6.77895 4.25263 6.86316 4.08421L5.13684 2.35789L0.336842 7.2C0.126316 7.41053 0 7.70526 0 8C0 8.29474 0.126316 8.58947 0.336842 8.8L7.2 15.6632C7.41053 15.8737 7.70526 16 8 16C8.29474 16 8.58947 15.8737 8.8 15.6632L15.6632 8.8C15.8737 8.58947 16 8.29474 16 8C16 7.70526 15.8737 7.41053 15.6632 7.2Z" fill="#F4511E"/>
</svg>
