<svg width="16" height="16" viewBox="0 0 16 16" fill="none" xmlns="http://www.w3.org/2000/svg">
<path d="M16 0H0L1.41176 14.3158L8 16L14.5882 14.3158L16 0Z" fill="#E65100"/>
<path d="M8 1.26312V14.6947L13.2706 13.3473L14.4471 1.26312H8Z" fill="#FF6D00"/>
<path d="M8 8.42104V6.73683H12.0471L11.7176 11.5789L8 12.6737V10.9053L9.92941 10.3158L10.0706 8.42104H8ZM12.1882 5.05262L12.3294 3.36841H8V5.05262H12.1882Z" fill="white"/>
<path d="M8 10.9053V12.6737L4.28235 11.5789L4.09411 9.26314H5.97647L6.07058 10.3158L8 10.9053ZM5.69411 5.05262H8V3.36841H3.71764L4.04706 8.42104H8V6.73683H5.83529L5.69411 5.05262Z" fill="#EEEEEE"/>
</svg>
