<svg width="16" height="16" viewBox="0 0 16 16" fill="none" xmlns="http://www.w3.org/2000/svg">
<path d="M0 16V0H16V16H0Z" fill="#FFD600"/>
<path d="M10.4613 11.9765C10.7689 12.476 11.1031 12.9547 11.8111 12.9547C12.4058 12.9547 12.7178 12.6591 12.7178 12.2503C12.7178 11.7609 12.3951 11.5871 11.7409 11.3023L11.3822 11.1494C10.3471 10.7103 9.65868 10.16 9.65868 8.99781C9.65868 7.9267 10.4787 7.11159 11.76 7.11159C12.6725 7.11159 13.328 7.42759 13.8009 8.25514L12.6836 8.96937C12.4378 8.53026 12.172 8.35737 11.76 8.35737C11.3396 8.35737 11.0733 8.6227 11.0733 8.96937C11.0733 9.39781 11.34 9.57115 11.9556 9.83648L12.3142 9.98937C13.5342 10.5089 14.2222 11.0396 14.2222 12.2325C14.2222 13.5178 13.2071 14.2223 11.8445 14.2223C10.5116 14.2223 9.75468 13.5534 9.33334 12.7254L10.4613 11.9765ZM5.31201 12.0129C5.5369 12.4156 5.87868 12.7254 6.37023 12.7254C6.84045 12.7254 7.11112 12.5396 7.11112 11.8174V7.11115H8.59245V12.0449C8.59245 13.5414 7.72445 14.2223 6.4569 14.2223C5.31157 14.2223 4.4849 13.4463 4.14801 12.7254L5.31201 12.0129Z" fill="#000001"/>
</svg>
