<svg width="16" height="16" viewBox="0 0 16 16" fill="none" xmlns="http://www.w3.org/2000/svg">
<path d="M10 5.16669C10 4.90002 9.76667 4.66669 9.5 4.66669H6.5C6.23333 4.66669 6 4.90002 6 5.16669V14.1667C6 14.4334 6.23333 14.6667 6.5 14.6667H9.5C9.76667 14.6667 10 14.4334 10 14.1667V5.16669Z" fill="#513EA1"/>
<path d="M4 5.16669C4 4.90002 3.76667 4.66669 3.5 4.66669H0.5C0.233333 4.66669 0 4.90002 0 5.16669V15.5C0 15.7667 0.233333 16 0.5 16H3.5C3.76667 16 4 15.7667 4 15.5V5.16669Z" fill="#513EA1"/>
<path d="M16 5.16669C16 4.90002 15.7667 4.66669 15.5 4.66669H12.5C12.2333 4.66669 12 4.90002 12 5.16669V12.8334C12 13.1 12.2333 13.3334 12.5 13.3334H15.5C15.7667 13.3334 16 13.1 16 12.8334V5.16669Z" fill="#513EA1"/>
<path d="M16 0.5C16 0.233333 15.7667 0 15.5 0H0.5C0.233333 0 0 0.233333 0 0.5V2.16667C0 2.43333 0.233333 2.66667 0.5 2.66667H15.5C15.7667 2.66667 16 2.43333 16 2.16667V0.5Z" fill="#513EA1"/>
</svg>
