<svg width="16" height="16" viewBox="0 0 16 16" fill="none" xmlns="http://www.w3.org/2000/svg">
<path d="M0.666656 0.683777H15.3333V15.3162H0.666656V0.683777Z" fill="url(#paint0_radial_731_450)"/>
<path d="M0.666658 0.68375H15.3333V15.3162H0.666658V0.68375ZM0 16H16V0H0V16ZM9.36667 6.73503C9.36667 6.65297 9.36667 6.4547 9.33334 6.07177C9.33334 6.01707 9.34667 6.0034 9.38667 5.98289C9.79333 5.81195 10.76 5.51111 11.84 5.51111C11.8933 5.51111 11.92 5.52478 11.92 5.57947V6.56409C11.92 6.61878 11.9 6.63246 11.84 6.63246C11.42 6.61195 10.8 6.66664 10.5667 6.76919V11.0837C10.5667 11.1384 10.5467 11.1658 10.4867 11.1658H9.43999C9.38667 11.1658 9.35998 11.1453 9.35998 11.0837V6.73501H9.36667V6.73503ZM4.43336 11.1658C4.35334 11.1658 4.33334 11.1316 4.33334 11.0632V3.71281C4.33334 3.65812 4.35334 3.62391 4.41336 3.62391H5.46666C5.51998 3.62391 5.53332 3.64442 5.53332 3.70597V10.0376H8.27996C8.33329 10.0376 8.35331 10.0581 8.33995 10.1197L8.17331 11.0906C8.15998 11.1453 8.12665 11.1726 8.0733 11.1726H4.43336V11.1658Z" fill="#AAD1EB"/>
<defs>
<radialGradient id="paint0_radial_731_450" cx="0" cy="0" r="1" gradientUnits="userSpaceOnUse" gradientTransform="translate(5.49715 3.96293) scale(11.1467 11.0687)">
<stop stop-color="#39464D" stop-opacity="0.98"/>
<stop offset="1" stop-color="#05151F"/>
</radialGradient>
</defs>
</svg>
