<svg width="16" height="16" viewBox="0 0 16 16" fill="none" xmlns="http://www.w3.org/2000/svg">
<path d="M11.8741 15.001C11.8146 15.0325 11.8196 15.0425 11.8766 15.0135C11.8951 15.006 11.9106 14.9955 11.9241 14.983C11.9241 14.9725 11.9241 14.9725 11.8741 15.001V15.001ZM11.9941 14.936C11.9656 14.9595 11.9656 14.9595 11.9996 14.944C12.0176 14.9335 12.0336 14.9235 12.0336 14.9205C12.0336 14.907 12.0256 14.91 11.9941 14.936V14.936ZM12.0721 14.889C12.0436 14.9125 12.0436 14.9125 12.0776 14.897C12.0961 14.8865 12.1116 14.8755 12.1116 14.873C12.1116 14.8605 12.1036 14.863 12.0721 14.889ZM12.1511 14.8425C12.1226 14.866 12.1226 14.866 12.1556 14.85C12.1741 14.84 12.1896 14.8295 12.1896 14.8265C12.1896 14.814 12.1816 14.8165 12.1511 14.8425ZM12.2576 14.772C12.2031 14.8085 12.1841 14.832 12.2341 14.806C12.2676 14.7855 12.3246 14.7405 12.3146 14.7405C12.2931 14.7485 12.2751 14.762 12.2571 14.772H12.2576ZM7.47627 0.00367509C7.43977 0.00617514 7.33027 0.0161753 7.23427 0.0241755C4.96035 0.23018 2.83291 1.4542 1.48445 3.33974C0.738977 4.37326 0.254992 5.57379 0.0724977 6.83431C0.00799975 7.27432 0 7.40432 0 8.00084C0 8.59685 0.00799975 8.72485 0.0724977 9.16486C0.507984 12.1704 2.64592 14.6935 5.54383 15.6285C6.06531 15.795 6.61179 15.91 7.23427 15.9805C7.47627 16.0065 8.52273 16.0065 8.76473 15.9805C9.84069 15.8605 10.7492 15.595 11.6481 15.1365C11.7861 15.0665 11.8121 15.048 11.7936 15.0325C11.3536 14.452 10.9217 13.871 10.4892 13.2849L9.21071 11.5584L7.60926 9.18586C7.07528 8.39184 6.5393 7.59983 5.99481 6.81381C5.98931 6.81381 5.98231 7.86833 5.97931 9.15436C5.97381 11.4069 5.97381 11.4984 5.94531 11.5504C5.91682 11.6129 5.86982 11.6649 5.80732 11.6939C5.75782 11.7174 5.71332 11.7224 5.47683 11.7224H5.20634L5.13584 11.6784C5.09184 11.6499 5.05534 11.6104 5.03184 11.5639L4.99784 11.4934L5.00034 8.35784L5.00584 5.22228L5.05534 5.15978C5.08684 5.12128 5.12584 5.08978 5.16984 5.06628C5.23534 5.03478 5.26134 5.02978 5.53183 5.02978C5.84932 5.02978 5.90182 5.04228 5.98531 5.13378C6.63329 6.0998 7.27927 7.06832 7.91475 8.03984C8.95422 9.61587 10.3732 11.7664 11.0707 12.8214L12.3391 14.741L12.4016 14.6995C13.0111 14.293 13.5656 13.809 14.0441 13.2569C15.052 12.1029 15.706 10.6834 15.9275 9.16836C15.992 8.72835 16 8.59785 16 8.00184C16 7.40532 15.992 7.27782 15.9275 6.83781C15.492 3.83225 13.3541 1.3092 10.4562 0.373683C9.91419 0.202179 9.35671 0.0851767 8.79222 0.0251755C8.64073 0.00967521 7.60676 -0.00882516 7.47677 0.00467511L7.47627 0.00367509ZM10.7497 4.84227C10.8252 4.87827 10.8822 4.94628 10.9082 5.02428C10.9217 5.06628 10.9242 5.9358 10.9217 7.89434L10.9162 10.7064L10.4217 9.94638L9.92419 9.18586V7.14432C9.92419 5.82079 9.92969 5.07878 9.93669 5.04228C9.96019 4.95878 10.0172 4.88877 10.0932 4.84477C10.1552 4.81327 10.1792 4.81077 10.4267 4.81077C10.6582 4.81077 10.6972 4.81327 10.7492 4.84227H10.7497Z" fill="black"/>
</svg>
