<svg width="16" height="16" viewBox="0 0 16 16" fill="none" xmlns="http://www.w3.org/2000/svg">
<path d="M5.73467 6.37403L4.099 7.27903C4.03767 7.31269 4 7.37536 4 7.44303V9.25403C4 9.32169 4.03767 9.38403 4.099 9.41803L5.735 10.3237C5.796 10.3574 5.87167 10.3574 5.93267 10.3237L7.56833 9.41803C7.629 9.38403 7.66667 9.32169 7.66667 9.25403V7.44303C7.66667 7.37536 7.629 7.31303 7.56767 7.27903L5.93233 6.37403C5.90167 6.35703 5.86733 6.34869 5.83333 6.34869C5.799 6.34869 5.765 6.35703 5.73433 6.37403H5.73467ZM14.1503 8.00436L13.8777 8.15503C13.8673 8.16069 13.8613 8.17103 13.8613 8.18236V8.48436C13.8613 8.49569 13.8677 8.50603 13.8777 8.51169L14.1503 8.66269C14.1607 8.66836 14.173 8.66836 14.1833 8.66269L14.456 8.51169C14.466 8.50603 14.4723 8.49569 14.4723 8.48436V8.18236C14.4723 8.17103 14.466 8.16069 14.4557 8.15503L14.183 8.00436C14.178 8.00136 14.1723 8.00003 14.1667 8.00003C14.161 8.00003 14.1553 8.00136 14.1503 8.00436Z" fill="#388E3C"/>
<path d="M11.917 4.45465L11.1207 4.01032C11.0957 3.99632 11.065 3.99665 11.0403 4.01132C11.0157 4.02598 11.0003 4.05232 11.0003 4.08098L11 6.76498L10.2657 6.35865C10.235 6.34165 10.2007 6.33332 10.1667 6.33332C10.1327 6.33332 10.0983 6.34165 10.0677 6.35865H10.068L8.43234 7.26365C8.37101 7.29732 8.33334 7.35998 8.33334 7.42732V9.23832C8.33334 9.30598 8.37101 9.36832 8.43234 9.40232L10.0683 10.308C10.1293 10.3416 10.205 10.3416 10.266 10.308L11.9017 9.40232C11.9623 9.36865 12 9.30598 12 9.23832V4.59598C12 4.53732 11.968 4.48332 11.917 4.45465ZM10.9553 8.81932L10.212 9.23098C10.1843 9.24632 10.15 9.24632 10.1223 9.23098L9.37868 8.81932C9.35034 8.80398 9.33334 8.77532 9.33334 8.74465V7.92132C9.33334 7.89065 9.35034 7.86232 9.37834 7.84665L10.122 7.43532H10.1217C10.1357 7.42765 10.151 7.42398 10.1667 7.42398C10.1823 7.42398 10.1977 7.42798 10.2117 7.43532L10.955 7.84665C10.983 7.86232 11 7.89098 11 7.92165V8.74498C11 8.77532 10.983 8.80398 10.9553 8.81932Z" fill="#37474F"/>
<path d="M5.73467 6.37403L4 9.25403C4 9.32169 4.03767 9.38403 4.099 9.41803L5.735 10.3237C5.796 10.3574 5.87167 10.3574 5.93267 10.3237L7.66667 7.44303C7.66667 7.37536 7.629 7.31303 7.56767 7.27903L5.93233 6.37403C5.90167 6.35703 5.86733 6.34869 5.83333 6.34869C5.799 6.34869 5.765 6.35703 5.73433 6.37403" fill="#2E7D32"/>
<path d="M5.73467 6.37403L4.099 7.27903C4.03767 7.31269 4 7.37536 4 7.44303L5.73467 10.3237C5.79567 10.3574 5.87133 10.3574 5.93233 10.3237L7.568 9.41803C7.629 9.38403 7.66667 9.32169 7.66667 9.25403L5.93233 6.37403C5.90167 6.35703 5.86733 6.34869 5.83333 6.34869C5.799 6.34869 5.765 6.35703 5.73433 6.37403" fill="#4CAF50"/>
<path d="M15.901 7.26365L14.2657 6.35865C14.235 6.34165 14.2007 6.33331 14.1667 6.33331C14.1327 6.33331 14.0983 6.34165 14.0677 6.35865H14.068L12.4323 7.26365C12.3713 7.29731 12.3333 7.36131 12.3333 7.43131V9.23498C12.3333 9.30465 12.3713 9.36898 12.4323 9.40265L14.0683 10.3083C14.1297 10.3423 14.2047 10.3423 14.266 10.3083L15.0203 9.89065C15.0893 9.85231 15.089 9.75331 15.0197 9.71531L13.3783 8.81965C13.3507 8.80398 13.3333 8.77498 13.3333 8.74365V7.92165C13.3333 7.89098 13.35 7.86265 13.3767 7.84798L14.1217 7.43598H14.1213C14.1353 7.42831 14.1507 7.42465 14.1663 7.42465C14.182 7.42465 14.1973 7.42865 14.2113 7.43598L14.9563 7.84831C14.983 7.86298 14.9997 7.89131 14.9997 7.92198V8.59265C14.9997 8.62131 15.015 8.64798 15.04 8.66231C15.065 8.67631 15.0957 8.67631 15.1207 8.66198L15.92 8.19765C15.9693 8.16898 16 8.11598 16 8.05865V7.43198C16 7.36165 15.962 7.29731 15.901 7.26365ZM3.56767 7.26365L1.93233 6.35865C1.90167 6.34165 1.86733 6.33331 1.83333 6.33331C1.79933 6.33331 1.765 6.34165 1.73433 6.35865H1.73467L0.099 7.26365C0.038 7.29731 0 7.36131 0 7.43131V9.91965C0 9.94831 0.0153333 9.97498 0.0403333 9.98931C0.0653333 10.0033 0.096 10.0033 0.121 9.98898L0.920333 9.52465C0.969667 9.49598 1 9.44298 1 9.38565V7.92131C1 7.89065 1.01667 7.86231 1.04333 7.84765L1.78833 7.43565C1.80233 7.42798 1.81767 7.42431 1.83333 7.42431C1.849 7.42431 1.86433 7.42831 1.87833 7.43565L2.62333 7.84798C2.65 7.86265 2.66667 7.89098 2.66667 7.92165V9.38598C2.66667 9.44331 2.697 9.49631 2.74667 9.52498L3.546 9.98931C3.571 10.0036 3.60167 10.0036 3.62667 9.98965C3.65133 9.97498 3.66667 9.94831 3.66667 9.91965V7.43165C3.66667 7.36165 3.62867 7.29731 3.56767 7.26365Z" fill="#37474F"/>
</svg>
