<svg width="16" height="16" viewBox="0 0 16 16" fill="none" xmlns="http://www.w3.org/2000/svg">
<path d="M0.66684 0.68396H15.3331V15.316H0.66684V0.68396Z" fill="#0C0824"/>
<path d="M0.666857 0.683956H15.3331V15.316H0.666857V0.683956ZM0 16H16V0H0V16ZM10.7869 6.5641C10.26 6.5641 10.08 6.8378 10.08 7.06344C10.08 7.3096 10.2 7.48073 10.9069 7.85641C11.9537 8.37626 12.2783 8.87502 12.2783 9.60703C12.2783 10.7012 11.4651 11.2891 10.3651 11.2891C9.89306 11.307 9.42384 11.2064 8.99829 10.996C8.95143 10.9755 8.94514 10.9415 8.94514 10.8864V9.88015C8.94514 9.81157 8.97829 9.79106 9.02514 9.82564C9.4248 10.0892 9.88999 10.2292 10.3651 10.2289C10.892 10.2289 11.112 10.0032 11.112 9.69553C11.112 9.44938 10.9589 9.23077 10.2851 8.87502C9.33829 8.41026 8.94514 7.93729 8.94514 7.15194C8.94514 6.26989 9.61829 5.53846 10.7851 5.53846C11.1913 5.52057 11.5969 5.58572 11.9783 5.73011C12.0002 5.74473 12.018 5.76509 12.0298 5.78909C12.0415 5.81309 12.0468 5.83987 12.0451 5.86667V6.8044C12.0451 6.8589 12.012 6.89348 11.9451 6.87297C11.5927 6.66485 11.1918 6.55852 10.7851 6.56527L10.7869 6.5641ZM5.05314 7.37758C5.20629 7.39106 5.32629 7.39106 5.59314 7.39106C6.37314 7.39106 7.10629 7.11092 7.10629 6.02374C7.10629 5.15517 6.57943 4.71795 5.69314 4.71795C5.42629 4.71795 5.17314 4.73143 5.05314 4.73846V7.37758ZM3.86629 3.74388C3.86629 3.69582 3.95943 3.66183 4.01314 3.66183C4.44 3.64132 5.07314 3.62784 5.73314 3.62784C7.58 3.62784 8.3 4.66696 8.3 5.99385C8.3 7.7304 7.07314 8.4759 5.56686 8.4759C5.31371 8.4759 5.22686 8.46242 5.04686 8.46242V11.0881C5.04686 11.1426 5.02686 11.1701 4.96686 11.1701H3.94686C3.89371 11.1701 3.86686 11.1496 3.86686 11.0881V3.74681L3.86629 3.74388Z" fill="#31C5F0"/>
</svg>
