<svg width="16" height="16" viewBox="0 0 16 16" fill="none" xmlns="http://www.w3.org/2000/svg">
<path d="M13.7696 9.19622C13.2104 9.2001 12.726 9.37911 12.3202 9.64641C12.1718 9.25104 12.0213 8.90321 11.9962 8.64464C11.9667 8.34289 11.9326 8.16243 11.9682 7.80295C12.0038 7.44348 12.1598 6.9341 12.1576 6.89578C12.1555 6.85745 12.1227 6.67456 11.8002 6.67116C11.4777 6.66825 11.2017 6.75412 11.1693 6.86764C11.1369 6.98116 11.0748 7.23681 11.0362 7.50363C10.9798 7.89367 10.3922 9.28548 10.0588 10.0132C9.94969 9.72888 9.85696 9.47856 9.83769 9.28063C9.80823 8.97889 9.77405 8.79842 9.80969 8.43895C9.84532 8.07947 10.0013 7.57009 9.99914 7.53177C9.99696 7.49344 9.96423 7.31055 9.64169 7.30716C9.31915 7.30425 9.04316 7.39011 9.01079 7.50363C8.97843 7.61715 8.94352 7.88251 8.87771 8.13963C8.81152 8.39626 8.03081 10.7176 7.82609 11.3196C7.72173 11.6262 7.63118 11.8726 7.56718 12.0405C7.56682 12.04 7.56682 12.0395 7.56682 12.0395C7.56682 12.0395 7.56282 12.0507 7.55627 12.0696C7.50137 12.2127 7.469 12.2918 7.469 12.2918C7.469 12.2918 7.46937 12.2927 7.47009 12.2947C7.42646 12.4 7.37991 12.4975 7.35701 12.4975C7.34101 12.4975 7.30864 12.2176 7.36391 11.8333C7.48028 11.028 7.75918 9.77254 7.75663 9.72888C7.75518 9.70657 7.80863 9.48778 7.57446 9.37329C7.34682 9.2622 7.26573 9.44751 7.24501 9.448C7.22501 9.44848 7.2101 9.51349 7.2101 9.51349C7.2101 9.51349 7.46355 8.1013 6.72647 8.1013C6.26539 8.1013 5.62685 8.77417 5.31231 9.38396C5.11377 9.52853 4.68869 9.83803 4.23815 10.1684C4.06507 10.2955 3.88834 10.425 3.72071 10.5483C3.70944 10.5313 3.6978 10.5148 3.68616 10.4978C2.792 9.22533 1.13966 8.32543 1.20948 6.61441C1.23493 5.99248 1.39711 4.35471 4.38506 2.36862C6.83265 0.741528 8.79225 1.18929 9.13079 2.18137C9.61442 3.59938 8.08354 6.23407 5.54177 6.61441C4.57342 6.75946 4.06325 6.25833 3.93634 6.07204C3.80289 5.87557 3.78289 5.86683 3.73307 5.9037C3.65198 5.96386 3.70325 6.13705 3.73307 6.24038C3.80907 6.5038 4.12034 6.97097 4.65124 7.20383C5.1185 7.40855 6.25557 7.52061 7.63046 6.81088C9.17079 6.01625 10.3733 3.80507 10.0199 1.95724C9.6606 0.0778823 7.32464 -0.540162 5.11377 0.507699C3.79634 1.13157 2.372 2.11054 1.34766 3.38835C0.129863 4.90775 -0.0643148 6.23067 0.0156838 6.78323C0.300042 8.747 2.32873 10.0258 3.14108 10.9732C3.10108 11.0028 3.06327 11.0305 3.02908 11.0557C2.62182 11.3244 1.0753 12.4043 0.688399 13.5448C0.249498 14.8387 0.758216 15.7672 1.09494 15.8923C2.13819 16.2795 3.20872 15.5828 3.78434 14.438C4.35961 13.2936 4.28942 11.8028 4.02543 11.1226C4.02216 11.1144 4.01852 11.1061 4.01525 11.0974C4.12034 11.0145 4.22761 10.93 4.33379 10.8466C4.54106 10.6841 4.74469 10.5327 4.92105 10.4047C4.82214 10.7656 4.74978 11.1988 4.71233 11.8241C4.66796 12.5586 4.89378 13.508 5.18904 13.8815C5.31922 14.046 5.47558 14.0499 5.57449 14.0499C5.91812 14.0499 6.07485 13.6686 6.24757 13.2174C6.4592 12.6644 6.6472 12.0201 6.6472 12.0201C6.6472 12.0201 6.41157 13.7598 7.05374 13.7598C7.28792 13.7598 7.52318 13.3547 7.62827 13.1485C7.62864 13.1509 7.62864 13.1519 7.62864 13.1519C7.62864 13.1519 7.63482 13.1383 7.64682 13.1116C7.67118 13.0622 7.685 13.0306 7.685 13.0306C7.685 13.0306 7.68536 13.0272 7.68609 13.0214C7.78027 12.8036 7.98899 12.3068 8.30172 11.4874C8.70607 10.4289 9.0937 9.10259 9.0937 9.10259C9.0937 9.10259 9.1297 9.42665 9.24788 9.9632C9.31733 10.2785 9.46497 10.6273 9.58169 10.9621C9.48788 11.1357 9.43042 11.2352 9.43042 11.2352C9.43042 11.2352 9.43079 11.2371 9.43188 11.2405C9.35697 11.3734 9.27297 11.5166 9.18497 11.6563C8.86571 12.1632 8.48571 12.7425 8.4348 12.9093C8.37481 13.1063 8.38899 13.2509 8.50498 13.3678C8.58971 13.4527 8.74025 13.4663 8.89771 13.4522C9.18461 13.4265 9.38606 13.3314 9.48569 13.2737C9.64096 13.2004 9.82169 13.0854 9.99114 12.919C10.3042 12.612 10.4929 12.1729 10.4748 11.5908C10.4646 11.2701 10.3882 10.9524 10.2911 10.6526C10.3195 10.5982 10.3479 10.5429 10.3766 10.4876C10.87 9.52513 11.2529 8.46757 11.2529 8.46757C11.2529 8.46757 11.2889 8.79163 11.4071 9.32817C11.4667 9.59936 11.5849 9.89577 11.6911 10.1859C11.2271 10.6889 10.9395 11.2735 10.8395 11.6568C10.6548 12.366 10.7995 12.6872 11.0708 12.7604C11.1937 12.7934 11.3675 12.7182 11.498 12.6445C11.6606 12.5727 11.8558 12.4528 12.0384 12.2738C12.3515 11.9667 12.6525 11.5369 12.6344 10.9553C12.626 10.6904 12.5722 10.4275 12.4991 10.1752C12.8925 9.95641 13.4016 9.83512 14.0503 9.93603C15.4419 10.1529 15.7147 11.3118 15.6627 11.797C15.6103 12.2821 15.3187 12.5489 15.2209 12.6294C15.1234 12.71 15.0936 12.7381 15.1016 12.7978C15.1136 12.8846 15.1587 12.8817 15.242 12.8628C15.3565 12.8371 15.9725 12.4684 15.999 11.5728C16.0321 10.4347 15.2158 9.18603 13.7696 9.19622ZM3.04363 14.0203C2.58255 14.6912 1.93892 14.9444 1.66256 14.731C1.36439 14.5005 1.48257 13.5128 2.04801 12.8007C2.39273 12.367 2.83781 11.9672 3.13308 11.7213C3.20035 11.6674 3.2989 11.5884 3.4189 11.4923C3.43889 11.4773 3.45017 11.469 3.45017 11.469L3.4498 11.468C3.47308 11.4496 3.49671 11.4307 3.52108 11.4108C3.72725 12.4242 3.52762 13.3164 3.04363 14.0203ZM6.40175 10.9752C6.24139 11.4971 5.9054 12.8332 5.70067 12.7614C5.52504 12.6998 5.41813 11.6844 5.66576 10.6851C5.79012 10.182 6.0563 9.58092 6.21266 9.34758C6.46429 8.97209 6.74138 8.84936 6.80865 9.00169C6.89411 9.19573 6.50248 10.6477 6.40175 10.9752ZM9.17588 12.741C9.10788 12.7885 9.04534 12.8181 9.01661 12.7953C8.99516 12.7784 9.04461 12.7158 9.04461 12.7158C9.04461 12.7158 9.39151 12.2176 9.52824 11.991C9.60787 11.859 9.69987 11.7024 9.80023 11.5277C9.80096 11.5452 9.80133 11.5626 9.80133 11.5796C9.8006 12.1763 9.36861 12.579 9.17588 12.741ZM11.3129 12.0909C11.262 12.0429 11.2708 11.8872 11.4377 11.4016C11.5031 11.2109 11.6529 10.8903 11.9126 10.5837C11.9427 10.7098 11.9609 10.8306 11.9606 10.9431C11.9573 11.6941 11.5558 11.9745 11.3129 12.0909Z" fill="#F06292"/>
</svg>
