<svg width="16" height="16" viewBox="0 0 16 16" fill="none" xmlns="http://www.w3.org/2000/svg">
<path d="M16 0H0V16H16V0Z" fill="#1976D2"/>
<path d="M9.55111 7.11115H3.65644V8.56181H5.77066V15.1111H7.44577V8.56181H9.55111V7.11115Z" fill="white"/>
<path d="M14.7529 8.92624C14.7529 8.92624 13.9587 8.39646 13.0609 8.39646C12.1631 8.39646 11.84 8.82313 11.84 9.27913C11.84 10.456 15.1204 10.3382 15.1204 12.7067C15.1204 16.3551 10.1187 14.7369 10.1187 14.7369V12.9867C10.1187 12.9867 11.0751 13.7076 12.2222 13.7076C13.3693 13.7076 13.3258 12.9573 13.3258 12.8542C13.3258 11.7658 10.0747 11.7658 10.0747 9.3529C10.0747 6.07246 14.8116 7.36668 14.8116 7.36668L14.7529 8.92624Z" fill="white"/>
</svg>
