<svg width="16" height="16" viewBox="0 0 16 16" fill="none" xmlns="http://www.w3.org/2000/svg">
<path d="M15.4343 1.69497L12.1398 0.0994797C11.9537 0.00924343 11.7444 -0.0205346 11.5407 0.0142735C11.3371 0.0490816 11.1493 0.146752 11.0033 0.293744L0.218535 10.184C0.0876843 10.3034 0.0093576 10.4702 0.00078532 10.6477C-0.00778696 10.8253 0.0540973 10.9989 0.172825 11.1306C0.187109 11.1461 0.201394 11.161 0.216821 11.1748L1.09731 11.9795C1.21237 12.0848 1.36047 12.1463 1.51589 12.1532C1.67131 12.1601 1.82423 12.1121 1.9481 12.0174L14.9384 2.10879C15.0365 2.0339 15.1534 1.98804 15.2761 1.97638C15.3987 1.96472 15.5221 1.98772 15.6325 2.04279C15.7428 2.09787 15.8356 2.18283 15.9006 2.28811C15.9655 2.39339 15.9999 2.51481 16 2.63871V2.6002C16 2.41105 15.9469 2.22575 15.8468 2.06561C15.7468 1.90547 15.6038 1.777 15.4343 1.69497Z" fill="#0065A9"/>
<path d="M15.4343 14.3049L12.1398 15.901C11.9537 15.991 11.7444 16.0206 11.5408 15.9858C11.3372 15.951 11.1494 15.8535 11.0033 15.7067L0.218535 5.81594C0.0876843 5.69651 0.0093576 5.52969 0.00078532 5.35216C-0.00778696 5.17464 0.0540973 5.00097 0.172825 4.86934C0.187109 4.85382 0.201394 4.83888 0.216821 4.82508L1.09731 4.02044C1.21249 3.91466 1.36092 3.85292 1.51672 3.84599C1.67253 3.83906 1.8258 3.88737 1.94981 3.98251L14.9384 13.8911C15.0365 13.966 15.1534 14.0119 15.2761 14.0235C15.3987 14.0352 15.5221 14.0122 15.6325 13.9571C15.7428 13.902 15.8356 13.8171 15.9006 13.7118C15.9655 13.6065 15.9999 13.4851 16 13.3612V13.4026C15.9994 13.5912 15.946 13.7759 15.846 13.9355C15.7459 14.095 15.6033 14.2231 15.4343 14.3049Z" fill="#007ACC"/>
<path d="M12.1398 15.901C11.9537 15.991 11.7444 16.0206 11.5408 15.9858C11.3372 15.951 11.1494 15.8535 11.0033 15.7067C11.0854 15.7882 11.1895 15.8435 11.3026 15.8657C11.4158 15.8879 11.5329 15.876 11.6394 15.8315C11.7459 15.787 11.8369 15.7119 11.9011 15.6155C11.9653 15.5192 11.9998 15.406 12.0004 15.29V0.709886C12.0005 0.593378 11.9662 0.479463 11.9018 0.382571C11.8375 0.285679 11.7461 0.21017 11.639 0.165609C11.532 0.121047 11.4143 0.109439 11.3007 0.132254C11.1871 0.155069 11.0828 0.211281 11.001 0.29377C11.147 0.146831 11.3348 0.0491547 11.5384 0.0142499C11.742 -0.020655 11.9513 0.00893618 12.1375 0.0989309L15.4315 1.69213C15.6015 1.77374 15.745 1.90203 15.8456 2.06221C15.9462 2.22238 15.9997 2.40789 16 2.59735V13.4026C16 13.5919 15.9469 13.7773 15.8467 13.9376C15.7466 14.0979 15.6034 14.2264 15.4338 14.3084L12.1398 15.901Z" fill="#1F9CF0"/>
</svg>
